<svg id="Layer_1" data-name="Layer 1" xmlns="http://www.w3.org/2000/svg" viewBox="0 0 516.36 123.17"><defs><style>.cls-1{fill:#abd1b4;}</style></defs><title>logo1</title><path class="cls-1" d="M246.5,204.6c-2.9,14.3-8.9,35.1-13.4,45.7-6,14.4-20.1,37.5-23.2,38.1a23.81,23.81,0,0,1-2.6.5c-1.6.4-5.7-1.8-9.9-5.3-4.7-3.8-12.3-13-20.2-24.2-2-2.8-3.8-5.1-4.1-5.1s-.9.9-1.4,2c-.6,1.5-.7,2.9-.4,6,.2,2.2.4,5.8.5,7.9.1,4.7,1.5,8.1,4.2,10.5a5.88,5.88,0,0,1,2.1,4.1,21.15,21.15,0,0,0,6,11.3l3.1,3-1.1,2.6a30.35,30.35,0,0,1-2.5,4.7c-1.9,2.8-3.8,7.9-3.4,9,.5,1.3,1.6,1,5.4-1.6,4.4-3,7.5-4.4,9.6-4.4A32,32,0,0,1,202,311c5.8,1.7,13.7,3.2,17.8,3.2,4.8,0,10.9-1.8,21.4-6,10.9-4.5,33.6-11.5,36.9-11.5,2.3,0,1.6-1.6-1.2-3.1-1.3-.6-2-1.2-1.6-1.2,1.4,0,9-3.9,9-4.5,0-1.8-2.2-2.1-15.7-2.1H255.4l3.6-4.2c8.3-9.7,10.6-19.6,5.7-23.8l-1.6-1.4,1-2.8c1.4-4.2,1.3-12.6-.3-15.6-1.2-2.3-3-3.9-4.3-3.9-.7,0-.8-.8-.6-6,.3-7.3-.5-12.4-2.5-16.6-1.6-3.3-4.7-6.7-7-7.5S246.7,203.2,246.5,204.6Zm-49,93.2c0,.4-.8,1.1-1.8,1.6-2,1-2.5.4-1-1.3.9-1.2,2.7-1.3,2.8-.3Z" transform="translate(-152.34 -203.46)"/><path d="M226.3,217c-2.8,14-8.8,34.5-13.2,44.9-5.9,14.1-19.7,36.8-22.8,37.5-.7.1-1.9.4-2.6.5-1.6.4-5.6-1.8-9.7-5.2-4.6-3.7-12.1-12.8-19.8-23.8-1.9-2.8-3.7-5-4-5s-.9.9-1.3,1.9c-.6,1.5-.7,2.9-.4,5.9.2,2.1.4,5.7.5,7.8.1,4.6,1.5,8,4.2,10.3a5.56,5.56,0,0,1,2,4,20.14,20.14,0,0,0,5.9,11.1l3,3-1,2.6a40.18,40.18,0,0,1-2.4,4.6c-1.8,2.7-3.8,7.8-3.4,8.8.5,1.3,1.6.9,5.3-1.6,4.3-3,7.3-4.3,9.4-4.4a31.14,31.14,0,0,1,6.7,1.6c5.7,1.7,13.5,3.1,17.5,3.1,4.7,0,10.7-1.7,21-5.9,10.7-4.3,33-11.2,36.3-11.2,2.2,0,1.6-1.6-1.2-3-1.2-.6-2-1.1-1.6-1.1,1.4,0,8.9-3.8,8.9-4.5,0-1.8-2.1-2-15.4-2h-13l3.5-4.2c8.2-9.6,10.5-19.3,5.6-23.4l-1.6-1.5,1-2.8c1.4-4.2,1.3-12.4-.3-15.3-1.2-2.3-2.9-3.8-4.3-3.8-.7,0-.8-.8-.6-5.9.3-7.1-.5-12.2-2.5-16.3-1.6-3.3-4.6-6.6-6.9-7.4C226.9,215.7,226.6,215.7,226.3,217Zm-48.2,91.7c0,.4-.8,1.1-1.8,1.6-2,.9-2.4.4-.9-1.3C176.4,307.8,178.1,307.7,178.1,308.7Z" transform="translate(-152.34 -203.46)"/><path d="M338.8,280v33h7.8l.4-13.8c.4-15.9,1.6-19.4,7.6-21.9,3.4-1.4,4-1.4,7.2.3,5.8,3.1,7,6.9,7,22.1V313h9V301.2c0-6.4-.5-13.7-1.1-16.2-2.4-10.5-9.9-16.6-19.6-15.8-3,.3-6.1,1.2-7.1,2.1a8.52,8.52,0,0,1-2.5,1.7c-.4,0-.7-5.9-.7-13V247h-8Z" transform="translate(-152.34 -203.46)"/><path d="M479.8,280v33h9v-7.3c0-6.7.2-7.6,2.8-10l2.8-2.6,6.7,9.9,6.8,10H518l-3.4-4.8c-1.9-2.6-6-8.4-9.2-12.9l-5.7-8.2,8.2-8.6,8.2-8.5h-5.4l-5.4-.1-8.2,8.8-8.2,8.8-.1-20.3V247h-9Z" transform="translate(-152.34 -203.46)"/><path d="M304.3,270.9c-11.6,5.4-15.9,19.3-9.7,31.2,5.6,10.8,18.3,14.6,28.6,8.5,6.4-3.8,7.2-5.6,3.7-9-2.3-2.3-2.9-2.5-3.4-1.2-.9,2.4-6.8,5.6-10.2,5.6-8.5,0-15-9.9-12.4-19.2,2.6-9.7,13.5-13.6,20.4-7.2l2.5,2.3,2.7-2.4,2.8-2.3-2-2.2C322.3,269.3,311.6,267.5,304.3,270.9Z" transform="translate(-152.34 -203.46)"/><path d="M396.9,271.2c-7.8,3.9-13.1,14.7-11.6,23.7,1,5.9,5.7,12.5,11.1,15.7,6,3.5,14.5,3.8,21.4.7,6.6-2.9,7.5-4.4,4.6-7.2l-2.4-2.2-4.1,2c-6.8,3.5-14.6,2.1-18.9-3.4-4.2-5.3-3.7-5.5,13.3-5.5h15.5v-3.3c0-4.7-2.6-12.9-5.1-16.1C415.6,269.1,405.1,267.1,396.9,271.2Zm13.4,6.4c3,1.4,6.5,6.4,6.5,9.3,0,.7-3.8,1.1-11.5,1.1H393.8l1.1-2.8c1.8-4.8,6.7-8.9,10.7-9.1.8-.1,2.9.6,4.7,1.5Z" transform="translate(-152.34 -203.46)"/><path d="M445.3,270.9c-8.1,3.7-12.5,11.1-12.5,20.8,0,16.7,17.4,27.1,31.4,18.9,6.5-3.8,7.2-5.6,3.6-9.1-2.8-2.7-2.8-2.7-3.9-.6-1.5,2.6-6.2,5.1-9.8,5.1-6.2,0-13.2-7.8-13.3-14.7,0-6.5,5.1-13.2,11.2-14.7,3.1-.7,9.6,1.5,11.4,4,1,1.3,1.6,1.2,4-1l2.9-2.4-2-2.2C463.3,269.3,452.6,267.5,445.3,270.9Z" transform="translate(-152.34 -203.46)"/><path d="M539.8,269.7a33.76,33.76,0,0,0-4.1,2.4c-2.6,1.8-2.7,1.8-3.2-.1-.4-1.5-1.4-2-4.1-2h-3.6v43h9V298.5c0-11.6.3-15.1,1.6-17,1.7-2.6,8.5-5.5,12.3-5.2,1.9.2,2.6-.4,3.2-2.7.5-1.6.6-3.3.3-3.8C550.6,268.9,542.2,268.8,539.8,269.7Z" transform="translate(-152.34 -203.46)"/><path d="M566.9,271.5c-8.9,5.2-13.1,14.6-11,24.5,2.7,12.7,14.4,20,26.3,16.6,13.3-3.9,19.4-20.2,12.4-32.9C589.2,269.9,576.1,266.1,566.9,271.5Zm17.8,9c3,3,3.5,4.2,3.9,9.3.5,7-1.3,11.3-6.1,14.2-5.2,3.2-9.3,2.6-13.7-1.8-7.8-7.8-6-20.7,3.4-24.8,4.3-1.9,8.4-.8,12.5,3.1Z" transform="translate(-152.34 -203.46)"/><path d="M602,271.2c.3.7,3.5,10.4,7.2,21.5L616,313h9.7l5-15.3c2.8-8.3,5.1-14.2,5.1-13s2.1,8,4.6,15.3l4.7,13.1,4.6-.3,4.6-.3,7.2-21.3,7.2-21.2h-4.9c-4.4,0-4.8.2-5.5,2.7-.3,1.6-2.5,8.6-4.7,15.8l-4.1,13L644.3,286l-5.2-15.5-4-.3-3.9-.3-5,15.5c-2.7,8.6-5.2,15.2-5.5,14.8s-2.8-7.3-5.3-15.5L610.7,270h-4.5C602.9,270,601.6,270.4,602,271.2Z" transform="translate(-152.34 -203.46)"/></svg>