<?xml version="1.0" encoding="utf-8"?>
<!-- Generator: Adobe Illustrator 24.0.2, SVG Export Plug-In . SVG Version: 6.00 Build 0)  -->
<svg version="1.1" id="Layer_1" xmlns="http://www.w3.org/2000/svg" xmlns:xlink="http://www.w3.org/1999/xlink" x="0px" y="0px"
	 viewBox="0 0 640 640" style="enable-background:new 0 0 640 640;" xml:space="preserve">
<style type="text/css">
	.st0{fill:#ABD1B4;}
</style>
<path class="st0" d="M171.9,212c-2.9,14.3-8.9,35.1-13.4,45.7c-6,14.4-20.1,37.5-23.2,38.1c-0.7,0.2-1.9,0.4-2.6,0.5
	c-1.6,0.4-5.7-1.8-9.9-5.3c-4.7-3.8-12.3-13-20.2-24.2c-2-2.8-3.8-5.1-4.1-5.1c-0.3,0-0.9,0.9-1.4,2c-0.6,1.5-0.7,2.9-0.4,6
	c0.2,2.2,0.4,5.8,0.5,7.9c0.1,4.7,1.5,8.1,4.2,10.5c1.3,1.2,1.8,2.1,2.1,4.1c0.6,4,2.7,7.9,6,11.3l3.1,3l-1.1,2.6
	c-0.6,1.4-1.7,3.5-2.5,4.7c-1.9,2.8-3.8,7.9-3.4,9c0.5,1.3,1.6,1,5.4-1.6c4.4-3,7.5-4.4,9.6-4.4c0.9,0,4,0.7,6.8,1.6
	c5.8,1.7,13.7,3.2,17.8,3.2c4.8,0,10.9-1.7,21.4-6c10.8-4.4,33.6-11.4,36.9-11.4c2.3,0,1.6-1.6-1.2-3.1c-1.3-0.6-2-1.2-1.6-1.2
	c1.4,0,9-3.9,9-4.6c0-1.8-2.2-2.1-15.7-2.1h-13.2l3.6-4.2c8.3-9.7,10.6-19.6,5.7-23.8l-1.6-1.4l1-2.8c1.4-4.2,1.3-12.6-0.3-15.6
	c-1.2-2.3-3-3.9-4.3-3.9c-0.7,0-0.8-0.8-0.6-6c0.3-7.3-0.5-12.4-2.5-16.6c-1.6-3.3-4.7-6.7-7-7.5C172.5,210.6,172.2,210.7,171.9,212
	z M122.9,305.2c0,0.4-0.8,1.1-1.9,1.6c-2,1-2.5,0.4-1-1.3C121.1,304.3,122.9,304.2,122.9,305.2z"/>
<path d="M151.7,224.5c-2.8,14-8.8,34.5-13.2,44.9c-5.9,14.2-19.7,36.8-22.8,37.5c-0.7,0.2-1.9,0.4-2.6,0.5c-1.6,0.4-5.6-1.8-9.7-5.2
	c-4.6-3.7-12.1-12.8-19.8-23.8c-1.9-2.8-3.7-5-4-5c-0.3,0-0.9,0.9-1.4,1.9c-0.6,1.5-0.7,2.9-0.4,5.9c0.2,2.1,0.4,5.7,0.5,7.8
	c0.1,4.6,1.5,8,4.2,10.3c1.3,1.1,1.8,2,2,4c0.6,3.9,2.7,7.8,5.9,11.1l3,3l-1,2.6c-0.6,1.4-1.7,3.5-2.4,4.6c-1.8,2.7-3.7,7.8-3.4,8.8
	c0.5,1.2,1.6,0.9,5.3-1.6c4.3-3,7.3-4.3,9.4-4.4c0.9,0,3.9,0.7,6.7,1.6c5.7,1.7,13.5,3.1,17.5,3.1c4.7,0,10.7-1.7,21-5.9
	c10.7-4.3,33-11.2,36.3-11.2c2.2,0,1.6-1.6-1.2-3c-1.2-0.6-2-1.1-1.6-1.1c1.4,0,8.8-3.8,8.8-4.5c0-1.8-2.1-2-15.4-2h-13l3.5-4.2
	c8.2-9.6,10.5-19.3,5.6-23.4l-1.6-1.4l1-2.8c1.4-4.2,1.3-12.4-0.3-15.3c-1.2-2.3-2.9-3.8-4.3-3.8c-0.7,0-0.8-0.8-0.6-5.9
	c0.3-7.1-0.5-12.2-2.5-16.3c-1.6-3.3-4.6-6.6-6.9-7.4C152.3,223.1,152,223.2,151.7,224.5z M103.6,316.1c0,0.4-0.8,1.1-1.8,1.6
	c-2,0.9-2.4,0.4-0.9-1.3C101.8,315.3,103.6,315.1,103.6,316.1z"/>
<g transform="translate(0.000000,640.000000) scale(0.100000,-0.100000)">
	<path d="M2121.3,3001.6v-330h39h39l4,138c4,159,16,194,76,219c34,14,40,14,72-3c58-31,70-69,70-221v-133h45h45v118
		c0,64-5,137-11,162c-24,105-99,166-196,158c-30-3-61-12-71-21s-22-17-25-17c-4,0-7,59-7,130v130h-40h-40V3001.6z"/>
	<path d="M3531.3,3001.6v-330h45h45v73c0,67,2,76,28,100l28,26l67-99l68-100h50h51l-34,48c-19,26-60,84-92,129l-57,82l82,86l82,85
		h-54l-54,1l-82-88l-82-88l-1,203v202h-45h-45V3001.6z"/>
	<path d="M1776.3,3092.6c-116-54-159-193-97-312c56-108,183-146,286-85c64,38,72,56,37,90c-23,23-29,25-34,12c-9-24-68-56-102-56
		c-85,0-150,99-124,192c26,97,135,136,204,72l25-23l27,24l28,23l-20,22C1956.3,3108.6,1850.3,3126.6,1776.3,3092.6z"/>
	<path d="M2702.3,3089.6c-78-39-131-147-116-237c10-59,57-125,111-157c60-35,145-38,214-7c66,29,75,44,46,72l-24,22l-41-20
		c-68-35-146-21-189,34c-42,53-37,55,133,55h155v33c0,47-26,129-51,161C2889.3,3110.6,2784.3,3130.6,2702.3,3089.6z M2836.3,3025.6
		c30-14,65-64,65-93c0-7-38-11-115-11h-115l11,28c18,48,67,89,107,91C2797.3,3041.6,2818.3,3034.6,2836.3,3025.6z"/>
	<path d="M3186.3,3092.6c-81-37-125-111-125-208c0-167,174-271,314-189c65,38,72,56,36,91c-28,27-28,27-39,6c-15-26-62-51-98-51
		c-62,0-132,78-133,147c0,65,51,132,112,147c31,7,96-15,114-40c10-13,16-12,40,10l29,24l-20,22
		C3366.3,3108.6,3260.3,3126.6,3186.3,3092.6z"/>
	<path d="M4131.3,3104.6c-8-3-27-14-41-24c-26-18-27-18-32,1c-4,15-14,20-41,20h-36v-215v-215h45h45v145c0,116,3,151,16,170
		c17,26,85,55,123,52c19-2,26,4,32,27c5,16,6,33,3,38C4239.3,3112.6,4155.3,3113.6,4131.3,3104.6z"/>
	<path d="M4402.3,3086.6c-89-52-131-146-110-245c27-127,144-200,263-166c133,39,194,202,124,329
		C4625.3,3102.6,4494.3,3140.6,4402.3,3086.6z M4580.3,2996.6c30-30,35-42,39-93c5-70-13-113-61-142c-52-32-93-26-137,18
		c-78,78-60,207,34,248C4498.3,3046.6,4540.3,3035.6,4580.3,2996.6z"/>
	<path d="M4753.3,3089.6c3-7,35-104,72-215l68-203h48h49l50,153c28,83,51,142,51,130s21-80,46-153l47-131l46,3l46,3l72,213l72,212
		h-49c-44,0-48-2-55-27c-3-16-25-86-47-158l-41-130l-52,155l-52,155l-40,3l-39,3l-50-155c-27-86-52-152-55-148c-4,4-28,73-53,155
		l-47,147h-45C4762.3,3101.6,4750.3,3097.6,4753.3,3089.6z"/>
</g>
</svg>
